<svg width="105" height="27" viewBox="0 0 105 27" fill="none" xmlns="http://www.w3.org/2000/svg"><mask id="b" style="mask-type:alpha" maskUnits="userSpaceOnUse" x="0" y="0" width="105" height="27"><g clip-path="url(#a)" fill="#fff"><path d="M63.405 8.018a8.55 8.55 0 0 0-4.307 1.074c0-3.82 0-7.28.12-8.473l-8.015 1.433v.716l.841.12c1.076.238 1.436.834 1.674 2.266.241 2.864.12 18.142 0 20.647 2.196.522 4.443.803 6.7.84 6.34 0 10.168-3.94 10.168-10.146 0-4.894-3.112-8.478-7.177-8.478zm-2.752 17.306a5.4 5.4 0 0 1-1.435-.118c-.121-1.667-.24-8.717-.121-14.92a5.3 5.3 0 0 1 1.794-.358c2.633 0 4.069 3.105 4.069 6.92 0 4.777-1.795 8.478-4.308 8.478zM21.055 1.095H0V2.17l1.196.119c1.555.238 2.154 1.193 2.392 3.46.3 5.248.3 10.508 0 15.755-.239 2.266-.836 3.343-2.392 3.46L0 25.204v.955h13.518v-.955l-1.435-.238c-1.556-.118-2.154-1.193-2.393-3.46-.12-1.553-.24-4.06-.24-7.162l2.872.12c1.794 0 2.631 1.431 2.99 3.46h1.077V9.451h-1.077c-.36 2.03-1.195 3.46-2.99 3.46l-2.87.12c0-4.058.119-7.877.24-10.144h4.185c3.231 0 4.905 2.028 6.102 5.61l1.196-.36z"/><path d="M27.87 7.779c5.98 0 8.973 4.058 8.973 9.43 0 5.132-3.35 9.43-9.332 9.43s-8.972-4.058-8.972-9.43c0-5.133 3.35-9.43 9.331-9.43m-.36 1.193c-2.631 0-3.349 3.581-3.349 8.236 0 4.532 1.196 8.236 3.59 8.236 2.749 0 3.468-3.581 3.468-8.236 0-4.532-1.195-8.236-3.708-8.236m44.622 8.356c0-4.894 3.113-9.549 9.212-9.549 5.023 0 7.416 3.7 7.416 8.594H77.635c-.12 4.416 2.033 7.638 6.34 7.638a6.16 6.16 0 0 0 4.069-1.313l.477.596a8.96 8.96 0 0 1-7.177 3.343c-5.384 0-9.212-3.82-9.212-9.31zm5.503-2.266 5.623-.12c0-2.387-.36-5.968-2.393-5.968s-3.112 3.34-3.23 6.086zM103 8.732a14.7 14.7 0 0 0-5.504-.953c-4.426 0-7.179 2.625-7.179 5.73 0 3.103 2.032 4.415 4.907 5.37 2.99 1.074 3.827 1.91 3.827 3.342a2.76 2.76 0 0 1-.895 2.024 2.77 2.77 0 0 1-2.096.72c-2.272 0-3.948-1.312-5.264-4.893l-.841.24.12 5.252a19 19 0 0 0 6.34 1.074c4.666 0 7.656-2.388 7.656-6.088 0-2.507-1.317-3.938-4.427-5.132-3.35-1.313-4.542-2.148-4.542-3.7a2.47 2.47 0 0 1 .683-1.86 2.5 2.5 0 0 1 1.831-.767c2.152 0 3.587 1.313 4.666 4.532l.836-.238zm-50.606-.475c-2.033-1.193-5.623-.597-7.537 3.7l.119-4.177-8.014 1.55v.717l.842.119c1.077.12 1.555.716 1.674 2.266.18 3.46.18 6.925 0 10.384-.12 1.427-.597 2.147-1.674 2.267l-.842.12v.954h11.125v-.951l-1.435-.12c-1.196-.12-1.556-.84-1.675-2.266a85 85 0 0 1-.119-9.668c.598-.84 3.23-1.552 5.622 0z"/></g></mask><g mask="url(#b)"><path fill="#FFE0A8" d="M-37.401-35.972h204.095V75.427H-37.401z"/></g><defs><clipPath id="a"><path fill="#fff" d="M0 .619h104.08v26.02H0z"/></clipPath></defs></svg>
