<svg width="64" height="64" viewBox="0 0 64 64" fill="none" xmlns="http://www.w3.org/2000/svg">
<g filter="url(#filter0_b_1_298)">
<rect width="64" height="64" rx="8" fill="#D6B271" fill-opacity="0.15"/>
<rect width="64" height="64" rx="8" fill="url(#paint0_linear_1_298)" fill-opacity="0.7"/>
<rect x="0.5" y="0.5" width="63" height="63" rx="7.5" stroke="#A69577"/>
<rect width="32" height="32" transform="translate(16 16)" fill="white" fill-opacity="0.01" style="mix-blend-mode:multiply"/>
<path d="M37 36V46L46 41L37 36Z" fill="#BE9853"/>
<path d="M30 32C31.1046 32 32 31.1045 32 30C32 28.8954 31.1046 28 30 28C28.8954 28 28 28.8954 28 30C28 31.1045 28.8954 32 30 32Z" fill="#BE9853"/>
<path d="M30 36C28.8133 36 27.6533 35.6481 26.6666 34.9888C25.6799 34.3295 24.9108 33.3924 24.4567 32.2961C24.0026 31.1997 23.8838 29.9933 24.1153 28.8294C24.3468 27.6655 24.9182 26.5964 25.7574 25.7573C26.5965 24.9182 27.6656 24.3468 28.8295 24.1152C29.9933 23.8837 31.1997 24.0026 32.2961 24.4567C33.3925 24.9108 34.3295 25.6798 34.9888 26.6665C35.6481 27.6532 36 28.8133 36 30C35.9983 31.5907 35.3655 33.1158 34.2407 34.2407C33.1159 35.3655 31.5908 35.9982 30 36ZM30 26C29.2089 26 28.4355 26.2346 27.7777 26.6741C27.1199 27.1136 26.6072 27.7383 26.3045 28.4692C26.0017 29.2001 25.9225 30.0044 26.0769 30.7803C26.2312 31.5562 26.6122 32.269 27.1716 32.8284C27.731 33.3878 28.4437 33.7688 29.2196 33.9231C29.9956 34.0774 30.7998 33.9982 31.5307 33.6955C32.2616 33.3927 32.8864 32.88 33.3259 32.2222C33.7654 31.5644 34 30.7911 34 30C33.9988 28.9395 33.577 27.9227 32.8271 27.1728C32.0772 26.423 31.0605 26.0012 30 26Z" fill="#BE9853"/>
<path d="M41.9512 28.91H41.9448C41.7315 26.4484 40.7668 24.112 39.1812 22.2171C37.5956 20.3222 35.4659 18.9605 33.0805 18.3165C30.6952 17.6725 28.1695 17.7774 25.8458 18.6168C23.522 19.4563 21.5124 20.9897 20.0893 23.0095C18.6662 25.0292 17.8984 27.4376 17.8898 29.9083C17.8813 32.3791 18.6325 34.7927 20.0415 36.8223C21.4506 38.8518 23.4496 40.3992 25.7675 41.2546C28.0854 42.1101 30.6103 42.2324 33 41.605V39.5386C30.8805 40.2019 28.6004 40.1394 26.5204 39.361C24.4404 38.5827 22.6795 37.1328 21.5162 35.241C20.3529 33.3492 19.8538 31.1235 20.0979 28.9161C20.3419 26.7087 21.3152 24.6457 22.8636 23.0537C24.412 21.4617 26.4472 20.4315 28.6469 20.1263C30.8467 19.8211 33.0854 20.2582 35.0088 21.3685C36.9322 22.4788 38.4304 24.1988 39.2662 26.2564C40.102 28.314 40.2277 30.5915 39.6235 32.7286L41.5483 33.2726C41.8486 32.2076 42.0006 31.1064 42 30C42 29.6328 41.9837 29.2694 41.9512 28.91Z" fill="#BE9853"/>
</g>
<defs>
<filter id="filter0_b_1_298" x="-32" y="-32" width="128" height="128" filterUnits="userSpaceOnUse" color-interpolation-filters="sRGB">
<feFlood flood-opacity="0" result="BackgroundImageFix"/>
<feGaussianBlur in="BackgroundImageFix" stdDeviation="16"/>
<feComposite in2="SourceAlpha" operator="in" result="effect1_backgroundBlur_1_298"/>
<feBlend mode="normal" in="SourceGraphic" in2="effect1_backgroundBlur_1_298" result="shape"/>
</filter>
<linearGradient id="paint0_linear_1_298" x1="12.6957" y1="64" x2="54.7948" y2="70.4532" gradientUnits="userSpaceOnUse">
<stop stop-color="#FFDB9E" stop-opacity="0"/>
<stop offset="0.5" stop-color="#FFDB9E" stop-opacity="0.41"/>
<stop offset="0.995" stop-color="#FFDB9E" stop-opacity="0"/>
</linearGradient>
</defs>
</svg>
