<svg width="64" height="64" viewBox="0 0 64 64" fill="none" xmlns="http://www.w3.org/2000/svg">
<g filter="url(#filter0_b_1_318)">
<rect width="64" height="64" rx="8" fill="#D6B271" fill-opacity="0.15"/>
<rect width="64" height="64" rx="8" fill="url(#paint0_linear_1_318)" fill-opacity="0.7"/>
<rect x="0.5" y="0.5" width="63" height="63" rx="7.5" stroke="#A69577"/>
<rect width="32" height="32" transform="translate(16 16)" fill="white" fill-opacity="0.01" style="mix-blend-mode:multiply"/>
<path d="M33 35H31V37H33V35Z" fill="#BE9853"/>
<path d="M33 39H31V41H33V39Z" fill="#BE9853"/>
<path d="M39 27.67V20H42V18H22V20H25V27.67C25 28.1027 25.1404 28.5238 25.4 28.87L27.75 32L25.4 35.13C25.1404 35.4762 25 35.8973 25 36.33V44H22V46H42V44H39V36.33C39 35.8973 38.8596 35.4762 38.6 35.13L36.25 32L38.6 28.87C38.8596 28.5238 39 28.1027 39 27.67ZM37 20V27H27V20H37ZM37 36.33V44H27V36.33L30.25 32L28 29H36L33.75 32L37 36.33Z" fill="#BE9853"/>
</g>
<defs>
<filter id="filter0_b_1_318" x="-32" y="-32" width="128" height="128" filterUnits="userSpaceOnUse" color-interpolation-filters="sRGB">
<feFlood flood-opacity="0" result="BackgroundImageFix"/>
<feGaussianBlur in="BackgroundImageFix" stdDeviation="16"/>
<feComposite in2="SourceAlpha" operator="in" result="effect1_backgroundBlur_1_318"/>
<feBlend mode="normal" in="SourceGraphic" in2="effect1_backgroundBlur_1_318" result="shape"/>
</filter>
<linearGradient id="paint0_linear_1_318" x1="12.6957" y1="64" x2="54.7948" y2="70.4532" gradientUnits="userSpaceOnUse">
<stop stop-color="#FFDB9E" stop-opacity="0"/>
<stop offset="0.5" stop-color="#FFDB9E" stop-opacity="0.41"/>
<stop offset="0.995" stop-color="#FFDB9E" stop-opacity="0"/>
</linearGradient>
</defs>
</svg>
