<svg width="22" height="22" viewBox="0 0 22 22" fill="none" xmlns="http://www.w3.org/2000/svg">
<path d="M10.5351 11.2626C10.3996 11.1263 10.3249 10.9448 10.3249 10.7513V0.732294C10.3249 0.551733 10.247 0.379942 10.1111 0.261015C9.97526 0.142047 9.7947 0.0876368 9.61568 0.111439C4.35207 0.813847 0.310162 5.32545 0.310162 10.7513C0.310162 16.6704 5.12526 21.4859 11.0438 21.4859C13.4201 21.4859 15.6721 20.7247 17.5562 19.2848C17.6997 19.1751 17.7889 19.0088 17.8008 18.8286C17.8128 18.6484 17.7464 18.4718 17.6187 18.3441L10.5351 11.2626ZM6.25927 14.0031V14.1504C6.25927 14.4963 5.97883 14.7768 5.63291 14.7768C5.28698 14.7768 5.00654 14.4963 5.00654 14.1504V14.037C4.42051 13.91 4.00627 13.6486 3.94798 13.6104C3.65797 13.4218 3.57575 13.0339 3.76433 12.7438C3.95291 12.4538 4.34092 12.3716 4.63093 12.5602C4.63552 12.5631 5.09736 12.8532 5.63291 12.8532C6.02739 12.8532 6.34834 12.5322 6.34834 12.1377C6.34834 11.7583 5.77342 11.5056 5.43072 11.3887C3.97107 10.891 3.66469 10.062 3.66469 9.45404C3.66469 8.58778 4.22751 7.85096 5.0065 7.58868V7.44136C5.0065 7.09544 5.28694 6.81499 5.63286 6.81499C5.97879 6.81499 6.25923 7.09544 6.25923 7.44136V7.58822C6.54298 7.68343 6.80388 7.84311 7.02327 8.06067C7.26889 8.30428 7.27052 8.7009 7.02691 8.94652C6.78333 9.19214 6.38672 9.19377 6.1411 8.95015C6.00359 8.81373 5.82307 8.73865 5.63286 8.73865C5.23838 8.73865 4.91743 9.0596 4.91743 9.45408C4.91743 9.83354 5.49235 10.0862 5.83501 10.2031C7.29466 10.7008 7.60104 11.5299 7.60104 12.1378C7.60108 13.004 7.03827 13.7408 6.25927 14.0031Z" fill="url(#paint0_linear_1_78)"/>
<path d="M21.5339 11.6865C21.415 11.5506 21.2432 11.4727 21.0626 11.4727H14.2965C14.0432 11.4727 13.8148 11.6253 13.7178 11.8594C13.6209 12.0935 13.6745 12.3629 13.8537 12.542L18.6373 17.3239C18.7551 17.4417 18.9146 17.5073 19.0801 17.5073C19.094 17.5073 19.1081 17.5068 19.1221 17.5059C19.3024 17.4938 19.4686 17.4044 19.5782 17.2607C20.7099 15.7769 21.4379 14.0206 21.6836 12.182C21.7074 12.003 21.6529 11.8224 21.5339 11.6865Z" fill="url(#paint1_linear_1_78)"/>
<path d="M12.392 10.0299H21.0635C21.244 10.0299 21.4158 9.95196 21.5348 9.81612C21.6537 9.68024 21.7082 9.49968 21.6843 9.32071C21.0462 4.53697 17.2591 0.750038 12.4748 0.111519C12.2956 0.0874668 12.1153 0.14217 11.9794 0.261096C11.8436 0.380022 11.7656 0.551814 11.7656 0.732375V9.40351C11.7656 9.74944 12.0461 10.0299 12.392 10.0299Z" fill="url(#paint2_linear_1_78)"/>
<defs>
<linearGradient id="paint0_linear_1_78" x1="9.05619" y1="0.105957" x2="9.05619" y2="21.4859" gradientUnits="userSpaceOnUse">
<stop stop-color="#A5906C"/>
<stop offset="1" stop-color="#C9A05B"/>
</linearGradient>
<linearGradient id="paint1_linear_1_78" x1="17.6796" y1="11.4727" x2="17.6796" y2="17.5073" gradientUnits="userSpaceOnUse">
<stop stop-color="#A5906C"/>
<stop offset="1" stop-color="#C9A05B"/>
</linearGradient>
<linearGradient id="paint2_linear_1_78" x1="16.7277" y1="0.105957" x2="16.7277" y2="10.0299" gradientUnits="userSpaceOnUse">
<stop stop-color="#A5906C"/>
<stop offset="1" stop-color="#C9A05B"/>
</linearGradient>
</defs>
</svg>
