
<svg width="64" height="64" viewBox="0 0 64 64" fill="none" xmlns="http://www.w3.org/2000/svg">
<g filter="url(#filter0_b_1_292)">
<rect width="64" height="64" rx="8" fill="#D6B271" fill-opacity="0.15"/>
<rect width="64" height="64" rx="8" fill="url(#paint0_linear_1_292)" fill-opacity="0.7"/>
<rect x="0.5" y="0.5" width="63" height="63" rx="7.5" stroke="#A69577"/>
<rect width="32" height="32" transform="translate(16 16)" fill="white" fill-opacity="0.01" style="mix-blend-mode:multiply"/>
<path d="M46 38H18V40H46V38Z" fill="#BE9853"/>
<path d="M46 42H18V44H46V42Z" fill="#BE9853"/>
<path d="M40 26C39.6044 26 39.2178 26.1173 38.8889 26.3371C38.56 26.5568 38.3036 26.8692 38.1522 27.2346C38.0009 27.6001 37.9613 28.0022 38.0384 28.3902C38.1156 28.7781 38.3061 29.1345 38.5858 29.4142C38.8655 29.6939 39.2219 29.8844 39.6098 29.9616C39.9978 30.0387 40.3999 29.9991 40.7654 29.8478C41.1308 29.6964 41.4432 29.44 41.6629 29.1111C41.8827 28.7822 42 28.3956 42 28C42 27.4696 41.7893 26.9609 41.4142 26.5858C41.0391 26.2107 40.5304 26 40 26Z" fill="#BE9853"/>
<path d="M32 32C31.2089 32 30.4355 31.7654 29.7777 31.3259C29.1199 30.8864 28.6072 30.2616 28.3045 29.5307C28.0017 28.7998 27.9225 27.9956 28.0769 27.2196C28.2312 26.4437 28.6122 25.731 29.1716 25.1716C29.731 24.6122 30.4437 24.2312 31.2196 24.0769C31.9956 23.9225 32.7998 24.0017 33.5307 24.3045C34.2616 24.6072 34.8864 25.1199 35.3259 25.7777C35.7654 26.4355 36 27.2089 36 28C35.9988 29.0605 35.577 30.0772 34.8271 30.8271C34.0772 31.577 33.0605 31.9988 32 32ZM32 26C31.6044 26 31.2178 26.1173 30.8889 26.3371C30.56 26.5568 30.3036 26.8692 30.1522 27.2346C30.0009 27.6001 29.9613 28.0022 30.0384 28.3902C30.1156 28.7781 30.3061 29.1345 30.5858 29.4142C30.8655 29.6939 31.2219 29.8844 31.6098 29.9616C31.9978 30.0387 32.3999 29.9991 32.7654 29.8478C33.1308 29.6964 33.4432 29.44 33.6629 29.1111C33.8827 28.7822 34 28.3956 34 28C33.9995 27.4697 33.7886 26.9613 33.4136 26.5864C33.0387 26.2114 32.5303 26.0005 32 26Z" fill="#BE9853"/>
<path d="M24 26C23.6044 26 23.2178 26.1173 22.8889 26.3371C22.56 26.5568 22.3036 26.8692 22.1522 27.2346C22.0009 27.6001 21.9613 28.0022 22.0384 28.3902C22.1156 28.7781 22.3061 29.1345 22.5858 29.4142C22.8655 29.6939 23.2219 29.8844 23.6098 29.9616C23.9978 30.0387 24.3999 29.9991 24.7654 29.8478C25.1308 29.6964 25.4432 29.44 25.6629 29.1111C25.8827 28.7822 26 28.3956 26 28C26 27.4696 25.7893 26.9609 25.4142 26.5858C25.0391 26.2107 24.5304 26 24 26Z" fill="#BE9853"/>
<path d="M44 36H20C19.47 35.9987 18.9621 35.7875 18.5873 35.4127C18.2125 35.0379 18.0013 34.53 18 34V22C18.0013 21.47 18.2125 20.9621 18.5873 20.5873C18.9621 20.2125 19.47 20.0013 20 20H44C44.53 20.0013 45.0379 20.2125 45.4127 20.5873C45.7875 20.9621 45.9987 21.47 46 22V34C45.9993 34.5302 45.7883 35.0385 45.4134 35.4134C45.0385 35.7883 44.5302 35.9993 44 36ZM44 22H20V34H44V22Z" fill="#BE9853"/>
</g>
<defs>
<filter id="filter0_b_1_292" x="-32" y="-32" width="128" height="128" filterUnits="userSpaceOnUse" color-interpolation-filters="sRGB">
<feFlood flood-opacity="0" result="BackgroundImageFix"/>
<feGaussianBlur in="BackgroundImageFix" stdDeviation="16"/>
<feComposite in2="SourceAlpha" operator="in" result="effect1_backgroundBlur_1_292"/>
<feBlend mode="normal" in="SourceGraphic" in2="effect1_backgroundBlur_1_292" result="shape"/>
</filter>
<linearGradient id="paint0_linear_1_292" x1="12.6957" y1="64" x2="54.7948" y2="70.4532" gradientUnits="userSpaceOnUse">
<stop stop-color="#FFDB9E" stop-opacity="0"/>
<stop offset="0.5" stop-color="#FFDB9E" stop-opacity="0.41"/>
<stop offset="0.995" stop-color="#FFDB9E" stop-opacity="0"/>
</linearGradient>
</defs>
</svg>
