<svg width="64" height="64" viewBox="0 0 64 64" fill="none" xmlns="http://www.w3.org/2000/svg">
<g filter="url(#filter0_b_1_304)">
<rect width="64" height="64" rx="8" fill="#D6B271" fill-opacity="0.15"/>
<rect width="64" height="64" rx="8" fill="url(#paint0_linear_1_304)" fill-opacity="0.7"/>
<rect x="0.5" y="0.5" width="63" height="63" rx="7.5" stroke="#A69577"/>
<rect width="32" height="32" transform="translate(16 16)" fill="white" fill-opacity="0.01" style="mix-blend-mode:multiply"/>
<path d="M39.586 29L37 26.414V22H39V25.586L41 27.586L39.586 29Z" fill="#BE9853"/>
<path d="M38 34C36.4177 34 34.871 33.5308 33.5554 32.6518C32.2398 31.7727 31.2145 30.5233 30.609 29.0615C30.0035 27.5997 29.845 25.9911 30.1537 24.4393C30.4624 22.8874 31.2243 21.462 32.3431 20.3431C33.462 19.2243 34.8874 18.4624 36.4393 18.1537C37.9911 17.845 39.5997 18.0035 41.0615 18.609C42.5233 19.2145 43.7727 20.2398 44.6518 21.5554C45.5308 22.871 46 24.4178 46 26C45.9976 28.121 45.1539 30.1544 43.6542 31.6542C42.1544 33.1539 40.121 33.9976 38 34ZM38 20C36.8133 20 35.6533 20.3519 34.6666 21.0112C33.6799 21.6705 32.9108 22.6075 32.4567 23.7039C32.0026 24.8003 31.8838 26.0067 32.1153 27.1705C32.3468 28.3344 32.9182 29.4035 33.7574 30.2426C34.5965 31.0818 35.6656 31.6532 36.8295 31.8847C37.9933 32.1162 39.1997 31.9974 40.2961 31.5433C41.3925 31.0892 42.3295 30.3201 42.9888 29.3334C43.6481 28.3467 44 27.1867 44 26C43.9983 24.4092 43.3656 22.8841 42.2407 21.7593C41.1159 20.6345 39.5908 20.0018 38 20Z" fill="#BE9853"/>
<path d="M24.63 34L31.63 40H46V38H32.37L25.37 32H20V18H18V44C18.0007 44.5302 18.2116 45.0386 18.5865 45.4135C18.9614 45.7884 19.4698 45.9993 20 46H46V44H20V34H24.63Z" fill="#BE9853"/>
</g>
<defs>
<filter id="filter0_b_1_304" x="-32" y="-32" width="128" height="128" filterUnits="userSpaceOnUse" color-interpolation-filters="sRGB">
<feFlood flood-opacity="0" result="BackgroundImageFix"/>
<feGaussianBlur in="BackgroundImageFix" stdDeviation="16"/>
<feComposite in2="SourceAlpha" operator="in" result="effect1_backgroundBlur_1_304"/>
<feBlend mode="normal" in="SourceGraphic" in2="effect1_backgroundBlur_1_304" result="shape"/>
</filter>
<linearGradient id="paint0_linear_1_304" x1="12.6957" y1="64" x2="54.7948" y2="70.4532" gradientUnits="userSpaceOnUse">
<stop stop-color="#FFDB9E" stop-opacity="0"/>
<stop offset="0.5" stop-color="#FFDB9E" stop-opacity="0.41"/>
<stop offset="0.995" stop-color="#FFDB9E" stop-opacity="0"/>
</linearGradient>
</defs>
</svg>
