<svg width="23" height="22" viewBox="0 0 23 22" fill="none" xmlns="http://www.w3.org/2000/svg">
<path d="M21.6457 3.06562C21.5367 1.64013 20.3366 0.543598 18.9184 0.433938C16.7365 0.214629 13.6819 0.10498 11.2818 0.10498C8.88174 0.10498 5.93621 0.214629 3.75433 0.433938C2.99067 0.433938 2.4452 0.762896 1.89973 1.31117C1.46335 1.74978 1.13607 2.40771 1.13607 3.06562C1.02698 4.82008 0.808792 7.23245 0.808792 9.0966C0.808792 10.9606 1.02698 13.3731 1.13607 15.1275C1.24516 16.553 2.4452 17.6496 3.86342 17.7592C6.0453 17.9785 9.09993 18.0881 11.5 18.0881C13.9001 18.0881 16.9546 17.8688 19.1366 17.7592C20.5548 17.6496 21.6457 16.553 21.8639 15.1275C22.0821 13.3731 22.1912 10.9606 22.1912 9.0966C22.1912 7.23245 21.8639 4.82008 21.6457 3.06562ZM16.3001 6.90348L13.0273 10.1931C12.7 10.5221 12.1545 10.5221 11.8273 10.1931L10.3 8.65794L7.57261 11.3993C7.35443 11.509 7.24533 11.6186 7.02715 11.6186C6.80895 11.6186 6.59077 11.509 6.48167 11.3993C6.15439 11.0703 6.15439 10.5221 6.48167 10.1931L9.75444 6.90348C10.0818 6.57453 10.6273 6.57453 10.9545 6.90348L12.4819 8.43864L15.2092 5.6973C15.5365 5.36835 16.0819 5.36835 16.4092 5.6973C16.6274 6.13592 16.6274 6.57453 16.3001 6.90348Z" fill="url(#paint0_linear_1_72)"/>
<path d="M15.7562 21.4873H7.02864C6.59226 21.4873 6.15588 21.1584 6.15588 20.6101C6.15588 20.0619 6.48316 19.7329 7.02864 19.7329H15.7562C16.1926 19.7329 16.6289 20.0619 16.6289 20.6101C16.6289 21.1584 16.1926 21.4873 15.7562 21.4873Z" fill="url(#paint1_linear_1_72)"/>
<defs>
<linearGradient id="paint0_linear_1_72" x1="11.5" y1="0.10498" x2="11.5" y2="18.0881" gradientUnits="userSpaceOnUse">
<stop stop-color="white"/>
<stop offset="1" stop-color="#BFE7FF"/>
</linearGradient>
<linearGradient id="paint1_linear_1_72" x1="11.3924" y1="19.7329" x2="11.3924" y2="21.4873" gradientUnits="userSpaceOnUse">
<stop stop-color="white"/>
<stop offset="1" stop-color="#BFE7FF"/>
</linearGradient>
</defs>
</svg>
