<svg width="181" height="35" viewBox="0 0 181 35" fill="none" xmlns="http://www.w3.org/2000/svg"><path d="M54.162 13.95h.228l-.807 4.339h-11.27v-.229l.764-.124c.6-.083.724-.228.724-.706V4.816c0-.477-.124-.622-.724-.705l-.764-.125v-.228h6.452v.228l-1.055.125c-.579.083-.703.249-.703.705V16.98c0 .747.228 1.017 1.034.955l2.358-.122c1.281-.104 1.613-.54 2.709-2.263zm2.208-.934v-8.2c0-.477-.165-.581-.744-.706l-.58-.124v-.228h6.308v.228l-1.075.145c-.58.062-.703.25-.703.706v8.075c0 2.844 1.2 4.444 3.743 4.444 2.461 0 3.991-1.515 3.95-4.484l-.124-7.306c0-.913-.27-1.224-1.055-1.411l-.889-.17v-.227h4.052v.228l-.6.166c-.683.207-.826.623-.848 1.39l-.143 7.413c-.083 3.425-1.801 5.542-5.48 5.542-3.95 0-5.812-1.994-5.812-5.481M59.266 1.41a1.41 1.41 0 0 1 .866-1.307 1.4 1.4 0 0 1 .54-.104c.806 0 1.448.623 1.448 1.411 0 .789-.642 1.413-1.448 1.413a1.39 1.39 0 0 1-1.303-.87 1.4 1.4 0 0 1-.103-.543m3.846 0a1.405 1.405 0 0 1 .866-1.307 1.4 1.4 0 0 1 .54-.104c.807 0 1.448.623 1.448 1.411 0 .789-.641 1.413-1.448 1.413a1.39 1.39 0 0 1-1.302-.87 1.4 1.4 0 0 1-.104-.543m21.965 9.323c0 4.63-3.371 7.556-8.148 7.556h-6.804v-.228l.765-.124c.6-.084.724-.229.724-.707V4.817c0-.477-.124-.622-.724-.705l-.765-.125v-.228h6.784c4.487 0 8.168 2.366 8.168 6.975m-8.086 7.161c2.688 0 4.673-2.677 4.673-6.85 0-4.525-2.213-6.892-5.44-6.892H74.82v12.622c0 .871.124 1.12.993 1.12zm24.461-7.162c0 4.63-3.371 7.556-8.148 7.556H86.5v-.228l.765-.124c.6-.084.724-.229.724-.707V4.817c0-.477-.124-.622-.724-.705l-.765-.125v-.228h6.783c4.488 0 8.169 2.366 8.169 6.975m-8.086 7.161c2.688 0 4.673-2.677 4.673-6.85 0-4.525-2.213-6.892-5.44-6.892h-1.406v12.622c0 .871.125 1.12.993 1.12zm21.263-3.862h.228l-.745 4.256h-11.229v-.229l.765-.124c.6-.083.724-.229.724-.706V4.816c0-.477-.124-.622-.724-.705l-.765-.125v-.228h11.229l.331 4.09h-.227l-1.055-1.785c-.827-1.328-1.137-1.764-2.42-1.847l-3.164-.149v6.624l4.571-.477.103.083v.83l-4.674-.166v6.02c0 .747.228 1.017 1.034.955l2.358-.125c1.241-.103 1.572-.56 2.626-2.242zm1.199 4.256v-.229l.703-.166c.641-.145.788-.56.827-1.245l.703-11.833c.042-.477-.123-.622-.703-.705l-.787-.125v-.228h4.88l4.198 12.123h.106l4.012-12.123h4.859v.228l-.744.125c-.579.103-.724.249-.703.705l.62 12.414c.021.498.124.603.703.706l.745.125v.228h-6.266v-.229l.765-.124c.703-.125.869-.228.848-.706l-.58-12.289h-.103l-4.569 13.348h-2.151l-4.695-13.348h-.104l-.454 11.687c-.042.81.289 1.121 1.095 1.266l.911.167v.228zm33.357-1.391c.29.768.579.996 1.426 1.163v.228h-6.534v-.229c1.801-.207 2.047-.414 1.716-1.286l-1.551-4.173h-4.922l-1.385 3.923c-.372 1.08-.207 1.329 1.737 1.537v.228h-4.156v-.229c.909-.188 1.22-.435 1.633-1.473l4.384-11.252-.558-1.474.083-.103h3.184zm-9.72-4.691h4.633l-2.337-6.249h-.104zm21.842-8.449h4.012v.228l-.559.166c-.682.228-.847.623-.847 1.39l-.166 12.747h-1.84l-8.851-12.892h-.124l.165 11.086c.021.913.29 1.225 1.075 1.411l.89.167v.228h-4.093v-.229l.641-.166c.682-.188.848-.622.848-1.39l.145-11.729c-.311-.353-.683-.56-1.138-.685l-.331-.104v-.228h4.612l7.569 10.958h.124l-.188-9.154c0-.914-.289-1.225-1.054-1.412l-.89-.166zm15.111 0h4.012v.228l-.558.166c-.683.228-.848.623-.848 1.39l-.166 12.747h-1.84l-8.851-12.892h-.124l.165 11.086c.021.913.289 1.225 1.075 1.411l.89.167v.228h-4.095v-.229l.641-.166c.683-.188.848-.622.848-1.39l.145-11.729c-.31-.353-.682-.56-1.138-.685l-.33-.104v-.228h4.611l7.569 10.958h.124l-.187-9.154c0-.914-.29-1.225-1.055-1.412l-.889-.166z" fill="#000"/><path d="M45.506 33.336h-2.24v-9.983h2.24zm11.208 0h-2.261l-4.1-6.272a9 9 0 0 1-.498-.829h-.028q.055.528.055 1.614v5.487h-2.115v-9.983h2.412l3.946 6.078q.27.41.5.814h.028q-.056-.349-.056-1.371v-5.521h2.115zm10.556-9.983-3.426 9.983h-2.539l-3.384-9.983h2.413l2.074 6.948q.166.564.201.995h.041q.06-.522.217-1.024l2.06-6.92zm7.157 9.983h-5.964v-9.983h5.735v1.831h-3.494v2.221h3.253v1.824h-3.254v2.284h3.724zm.792-.515v-2.228a4.26 4.26 0 0 0 2.74 1.017q.373.004.738-.077c.186-.041.364-.113.526-.213a.9.9 0 0 0 .316-.32.87.87 0 0 0-.062-.922 1.8 1.8 0 0 0-.455-.425 5 5 0 0 0-.682-.375 23 23 0 0 0-.853-.37q-1.165-.485-1.737-1.19-.572-.703-.573-1.7 0-.78.313-1.34c.205-.37.497-.687.849-.922.38-.25.802-.43 1.245-.531a6.4 6.4 0 0 1 1.498-.17q.692-.008 1.377.093.568.086 1.106.289v2.081a3.3 3.3 0 0 0-.544-.306 4 4 0 0 0-.607-.22 4.7 4.7 0 0 0-1.208-.17 3 3 0 0 0-.694.073 1.8 1.8 0 0 0-.526.206 1 1 0 0 0-.333.317.75.75 0 0 0-.118.414.8.8 0 0 0 .132.449q.154.221.375.376.28.199.59.348.346.17.783.351.554.23 1.072.533.45.263.814.637c.225.234.402.51.52.811q.18.456.181 1.062 0 .835-.316 1.403a2.6 2.6 0 0 1-.856.919 3.7 3.7 0 0 1-1.259.504 7.3 7.3 0 0 1-1.515.153 8.4 8.4 0 0 1-1.557-.139 4.7 4.7 0 0 1-1.28-.418m15.749-7.637h-2.836v8.152h-2.247v-8.152h-2.823v-1.831h7.906zm12.672 8.152h-2.213v-5.973q0-.968.084-2.137h-.056q-.174.918-.312 1.322l-2.33 6.788h-1.831l-2.372-6.718q-.098-.272-.313-1.392h-.061q.09 1.476.09 2.59v5.52h-2.019v-9.983h3.28l2.033 5.917q.24.699.354 1.428h.042q.16-.731.395-1.441l2.033-5.904h3.197zm8.225 0h-5.964v-9.983h5.736v1.831h-3.495v2.221h3.253v1.824h-3.254v2.284h3.724zm10.542 0h-2.261l-4.099-6.272a9 9 0 0 1-.499-.829h-.028q.056.528.056 1.614v5.487h-2.116v-9.983h2.414l3.946 6.078q.27.41.5.814h.027q-.054-.349-.055-1.371v-5.521h2.115zm9.259-8.152h-2.837v8.152h-2.247v-8.152h-2.822v-1.831h7.906zm.881 7.77v-2.228a4.25 4.25 0 0 0 2.74 1.016q.374.006.738-.076.281-.063.526-.213a.9.9 0 0 0 .316-.32.87.87 0 0 0-.063-.922 1.8 1.8 0 0 0-.454-.425 5 5 0 0 0-.683-.376q-.396-.18-.853-.37-1.165-.486-1.738-1.19-.571-.702-.571-1.699 0-.78.313-1.34c.206-.371.497-.687.85-.922a3.8 3.8 0 0 1 1.244-.531 6.4 6.4 0 0 1 1.498-.17q.692-.007 1.377.092.569.086 1.107.289v2.082a3.4 3.4 0 0 0-.545-.307 4 4 0 0 0-.607-.22 4.6 4.6 0 0 0-1.208-.17 3 3 0 0 0-.693.073q-.28.061-.527.206a1 1 0 0 0-.333.317.75.75 0 0 0-.118.414.8.8 0 0 0 .132.449q.153.22.374.376.28.199.589.348.346.17.784.351.554.23 1.071.533.452.263.815.637c.225.234.402.51.52.811q.181.456.181 1.062 0 .835-.316 1.403a2.56 2.56 0 0 1-.856.919 3.7 3.7 0 0 1-1.259.504 7.2 7.2 0 0 1-1.515.153 8.4 8.4 0 0 1-1.557-.139 4.7 4.7 0 0 1-1.279-.417" fill="#A69577"/><path d="M0 10.135V34.94h7.428l3.33-4.366v4.366h6.386c-2.6-5.104-5.076-9.952-7.653-15.009 1.095 0 2.113-.017 3.102 0h1.282l1.097 2.147 1.846 3.605 2.221 4.336-.69 1.793-.074.198c-.21.554-.43 1.119-.66 1.712l-.475 1.22h5.78v-14.82h3.517V34.94h3.323l3.33-4.366V1.722H8.382C3.754 1.722.002 5.49 0 10.135" fill="#000"/></svg>
