<svg width="179" height="36" viewBox="0 0 179 36" fill="none" xmlns="http://www.w3.org/2000/svg"><path d="M53.593 14.516h.226l-.798 4.294H41.867v-.226l.757-.123c.594-.083.717-.227.717-.7V5.478c0-.472-.123-.616-.717-.698l-.757-.123V4.43h6.386v.226l-1.044.123c-.573.082-.696.246-.696.698v12.037c0 .74.225 1.006 1.023.945l2.333-.12c1.269-.104 1.596-.535 2.68-2.24zm2.186-.925V5.477c0-.473-.164-.575-.737-.698l-.573-.124V4.43h6.242v.226l-1.064.144c-.574.062-.697.246-.697.698v7.992c0 2.814 1.188 4.397 3.705 4.397 2.435 0 3.95-1.5 3.909-4.437l-.123-7.23c0-.903-.266-1.212-1.044-1.396l-.88-.168V4.43h4.01v.226l-.594.165c-.675.205-.817.616-.839 1.376l-.142 7.335c-.081 3.389-1.782 5.484-5.423 5.484-3.909 0-5.75-1.972-5.75-5.424m2.865-11.483A1.39 1.39 0 0 1 59.5.814c.17-.07.351-.105.534-.103.798 0 1.433.616 1.433 1.397 0 .78-.635 1.398-1.433 1.398a1.375 1.375 0 0 1-1.289-.861 1.4 1.4 0 0 1-.102-.537m3.806 0a1.39 1.39 0 0 1 .857-1.294q.257-.105.535-.103c.798 0 1.432.616 1.432 1.397 0 .78-.634 1.398-1.432 1.398a1.38 1.38 0 0 1-1.29-.862 1.4 1.4 0 0 1-.102-.536m21.738 9.224c0 4.581-3.336 7.478-8.063 7.478H69.39v-.226l.757-.123c.594-.082.716-.226.716-.699V5.477c0-.472-.123-.616-.716-.698l-.757-.123V4.43h6.713c4.44 0 8.083 2.342 8.083 6.902m-8.002 7.087c2.66 0 4.625-2.65 4.625-6.779 0-4.478-2.19-6.82-5.383-6.82h-1.39v12.49c0 .863.122 1.11.981 1.11zm24.206-7.087c0 4.581-3.336 7.478-8.063 7.478h-6.733v-.226l.757-.123c.594-.082.716-.226.716-.699V5.477c0-.472-.123-.616-.716-.698l-.757-.123V4.43h6.712c4.441 0 8.084 2.342 8.084 6.902m-8.002 7.087c2.66 0 4.625-2.65 4.625-6.779 0-4.478-2.19-6.82-5.383-6.82h-1.392v12.49c0 .863.123 1.11.983 1.11zm21.041-3.821h.225l-.737 4.211h-11.112v-.226l.757-.123c.594-.082.716-.226.716-.699V5.477c0-.472-.122-.616-.716-.698l-.757-.123V4.43h11.112l.328 4.046h-.225l-1.044-1.765c-.819-1.315-1.125-1.746-2.394-1.828l-3.132-.147v6.555l4.523-.473.102.083v.821l-4.625-.164v5.957c0 .74.225 1.007 1.024.945l2.333-.123c1.228-.103 1.555-.554 2.598-2.219zm1.188 4.212v-.226l.696-.165c.634-.143.78-.554.819-1.232l.695-11.71c.041-.472-.122-.616-.695-.698l-.78-.123V4.43h4.83l4.154 11.997h.104l3.971-11.997h4.809v.226l-.737.123c-.573.102-.716.246-.696.698l.614 12.285c.02.493.123.596.696.698l.737.123v.227h-6.201v-.226l.757-.123c.696-.124.86-.227.84-.7l-.574-12.16h-.102l-4.522 13.209h-2.128L117.257 5.6h-.102l-.45 11.566c-.041.802.286 1.11 1.084 1.253l.901.165v.226zm33.012-1.377c.286.76.573.986 1.41 1.15v.227h-6.465v-.226c1.782-.206 2.026-.41 1.698-1.274l-1.534-4.129h-4.871l-1.371 3.882c-.369 1.069-.205 1.315 1.719 1.52v.227h-4.113v-.226c.9-.187 1.207-.432 1.616-1.459l4.339-11.134-.553-1.459.082-.102h3.152zm-9.619-4.643h4.584l-2.312-6.183h-.103zm21.611-8.36h3.97v.226l-.552.164c-.675.226-.839.616-.839 1.376l-.164 12.614h-1.821l-8.759-12.758h-.123l.164 10.97c.02.904.286 1.212 1.064 1.397l.88.165v.226h-4.05v-.226l.634-.165c.675-.186.839-.616.839-1.376l.143-11.607c-.307-.349-.675-.555-1.125-.678l-.328-.102V4.43h4.564l7.49 10.844h.123l-.186-9.06c0-.903-.286-1.211-1.043-1.396l-.881-.164zm14.955 0h3.97v.226l-.552.164c-.675.226-.839.616-.839 1.376l-.164 12.614h-1.821l-8.76-12.758h-.122l.164 10.97c.02.904.286 1.212 1.064 1.397l.88.165v.226h-4.052v-.226l.634-.165c.676-.186.839-.616.839-1.376l.144-11.607c-.307-.349-.676-.555-1.126-.678l-.328-.102V4.43h4.564l7.49 10.844h.123l-.186-9.06c0-.903-.286-1.211-1.043-1.396l-.88-.164z" fill="#fff"/><path d="M45.037 33.7H42.82v-9.88h2.217zm11.092 0H53.89l-4.056-6.207a9 9 0 0 1-.494-.82h-.028q.055.522.055 1.597v5.43h-2.093v-9.88h2.387l3.905 6.015q.267.407.494.807h.028q-.055-.345-.055-1.358v-5.463h2.093zm10.446-9.879-3.391 9.88h-2.512l-3.35-9.88h2.39l2.051 6.876q.165.558.2.985h.04a5.6 5.6 0 0 1 .215-1.014l2.038-6.848zm7.083 9.879h-5.903v-9.88h5.676v1.813h-3.458v2.198h3.219v1.805h-3.22v2.26h3.686zm.783-.51v-2.204a4.2 4.2 0 0 0 2.711 1.006 3 3 0 0 0 .731-.076c.184-.04.36-.112.52-.21a.9.9 0 0 0 .313-.317.86.86 0 0 0-.062-.913 1.8 1.8 0 0 0-.45-.42 5 5 0 0 0-.674-.372q-.392-.18-.844-.365-1.155-.482-1.72-1.178-.566-.696-.566-1.682 0-.772.309-1.326a2.6 2.6 0 0 1 .84-.913 3.8 3.8 0 0 1 1.233-.526 6.3 6.3 0 0 1 1.482-.168q.685-.007 1.362.092.563.084 1.095.286v2.06q-.255-.178-.539-.303a4 4 0 0 0-.6-.217 4.6 4.6 0 0 0-1.196-.169 3 3 0 0 0-.686.072q-.276.06-.52.204a1 1 0 0 0-.33.313.74.74 0 0 0-.116.41.8.8 0 0 0 .13.444c.1.145.226.271.37.372q.278.198.584.345.343.168.775.348.548.227 1.061.527.446.26.806.63c.223.232.397.504.515.803q.18.45.179 1.05 0 .828-.313 1.389a2.54 2.54 0 0 1-.847.91 3.7 3.7 0 0 1-1.246.499 7.2 7.2 0 0 1-1.5.151 8.3 8.3 0 0 1-1.54-.137 4.7 4.7 0 0 1-1.267-.414m15.586-7.558h-2.808V33.7h-2.223v-8.067h-2.793v-1.812h7.824zm12.539 8.067h-2.189v-5.91q0-.959.082-2.116h-.055q-.171.91-.309 1.31L97.789 33.7h-1.812l-2.347-6.648q-.096-.27-.309-1.378h-.061q.09 1.46.089 2.563V33.7h-1.997v-9.88h3.246l2.01 5.857q.239.69.351 1.413h.042q.159-.723.391-1.426l2.011-5.843h3.164zm8.14 0h-5.902v-9.88h5.676v1.813h-3.458v2.198h3.219v1.805h-3.22v2.26h3.685zm10.432 0h-2.237l-4.056-6.207a9 9 0 0 1-.494-.82h-.028q.055.522.055 1.597v5.43h-2.094v-9.88h2.389l3.905 6.015q.268.407.495.807h.027q-.055-.345-.055-1.358v-5.463h2.093zm9.163-8.067h-2.807V33.7h-2.224v-8.067h-2.793v-1.812h7.824zm.872 7.689v-2.205a4.2 4.2 0 0 0 2.711 1.006q.37.005.731-.076.277-.062.52-.21a.9.9 0 0 0 .312-.317.8.8 0 0 0 .103-.396.86.86 0 0 0-.164-.517 1.8 1.8 0 0 0-.45-.42 5 5 0 0 0-.676-.372q-.391-.18-.844-.365-1.154-.483-1.719-1.178-.566-.696-.566-1.682 0-.771.309-1.326a2.6 2.6 0 0 1 .842-.912 3.8 3.8 0 0 1 1.231-.526 6.3 6.3 0 0 1 1.482-.169q.685-.006 1.363.092.563.084 1.095.286v2.06a3.3 3.3 0 0 0-.538-.303 4 4 0 0 0-.601-.218 4.7 4.7 0 0 0-1.196-.168 3 3 0 0 0-.686.072q-.278.06-.522.203a1 1 0 0 0-.329.314.74.74 0 0 0-.117.41.8.8 0 0 0 .131.444q.152.218.37.372.276.197.583.345.343.168.776.347.548.228 1.06.527c.296.173.568.385.807.631.222.231.397.504.514.803q.179.45.179 1.05 0 .826-.312 1.389a2.55 2.55 0 0 1-.848.909 3.7 3.7 0 0 1-1.246.5 7 7 0 0 1-1.499.15 8.3 8.3 0 0 1-1.541-.137 4.6 4.6 0 0 1-1.265-.413" fill="#D6B271"/><path d="M0 10.74v24.548h7.35l3.297-4.32v4.32h6.319c-2.574-5.05-5.023-9.848-7.573-14.853 1.083 0 2.09-.017 3.07 0h1.267l1.086 2.124 1.827 3.568 2.198 4.29-.682 1.775-.074.196c-.208.549-.427 1.107-.654 1.694l-.47 1.207h5.72V20.624h3.48v14.664h3.29l3.295-4.32V2.415H8.296C3.714 2.416.001 6.143 0 10.74" fill="url(#a)"/><defs><linearGradient id="a" x1="0" y1="6.727" x2="19.5" y2="21.5" gradientUnits="userSpaceOnUse"><stop stop-color="#fff"/><stop offset=".535" stop-color="#D5D5D5"/><stop offset="1" stop-color="#fff"/></linearGradient></defs></svg>
